<svg xmlns="http://www.w3.org/2000/svg" width="20.604" height="21.049" viewBox="0 0 20.604 21.049">
  <g id="websearch_102296" transform="translate(0.25 0.25)">
    <path id="Tracé_185" data-name="Tracé 185" d="M84,12.707v7.042h4.738C88.409,15.776,86.412,12.707,84,12.707Z" transform="translate(-74.655 -11.293)" fill="none" stroke="#cecfcf" stroke-width="0.5"/>
    <path id="Tracé_186" data-name="Tracé 186" d="M106.163,17.7h2.778a8.468,8.468,0,0,0-6.338-7.3C104.5,11.59,105.9,14.362,106.163,17.7Z" transform="translate(-91.188 -9.242)" fill="none" stroke="#cecfcf" stroke-width="0.5"/>
    <path id="Tracé_187" data-name="Tracé 187" d="M41.417,20.926h3.848V14.031C43.265,14.677,41.705,17.454,41.417,20.926Z" transform="translate(-36.81 -12.47)" fill="none" stroke="#cecfcf" stroke-width="0.5"/>
    <path id="Tracé_188" data-name="Tracé 188" d="M40.942,84.262c0,4,1.683,7.33,3.9,8.046V84H40.949C40.948,84.088,40.942,84.173,40.942,84.262Z" transform="translate(-36.387 -74.655)" fill="none" stroke="#cecfcf" stroke-width="0.5"/>
    <path id="Tracé_189" data-name="Tracé 189" d="M11.208,17.7c.266-3.336,1.664-6.107,3.56-7.3A8.468,8.468,0,0,0,8.43,17.7Z" transform="translate(-7.492 -9.242)" fill="none" stroke="#cecfcf" stroke-width="0.5"/>
    <path id="Tracé_190" data-name="Tracé 190" d="M110.23,111.115a3.115,3.115,0,1,0-3.115,3.115A3.119,3.119,0,0,0,110.23,111.115Z" transform="translate(-92.429 -95.984)" fill="none" stroke="#cecfcf" stroke-width="0.5"/>
    <path id="Tracé_191" data-name="Tracé 191" d="M10.775,84.262c0-.088.007-.174.008-.262H8a8.463,8.463,0,0,0,5.347,7.856A11.2,11.2,0,0,1,10.775,84.262Z" transform="translate(-7.11 -74.655)" fill="none" stroke="#cecfcf" stroke-width="0.5"/>
    <path id="Tracé_192" data-name="Tracé 192" d="M9.345,17.8V9.345h4.783c0,.088.008.173.008.262a.445.445,0,0,0,.89,0c0-.088-.007-.174-.008-.262h3.673A9.356,9.356,0,0,0,9.345,0h-.89V.045a9.344,9.344,0,0,0,.89,18.646.445.445,0,1,0,0-.89Zm-.89-.147c-2.217-.716-3.9-4.049-3.9-8.046,0-.088.006-.174.008-.262H8.455Zm-3.848-9.2C4.9,4.984,6.456,2.207,8.455,1.561V8.455Zm4.738,0V1.414c2.412,0,4.408,3.069,4.738,7.042Zm8.408,0H14.975c-.266-3.336-1.664-6.107-3.56-7.3A8.468,8.468,0,0,1,17.753,8.455ZM7.276,1.157c-1.9,1.192-3.294,3.963-3.56,7.3H.938A8.468,8.468,0,0,1,7.276,1.157ZM.89,9.345H3.673c0,.088-.008.173-.008.262A11.2,11.2,0,0,0,6.238,17.2,8.463,8.463,0,0,1,.89,9.345Z" fill="#cecfcf" stroke="#cecfcf" stroke-width="0.5"/>
    <path id="Tracé_193" data-name="Tracé 193" d="M105.319,108.69l-2.188-2.188a4.015,4.015,0,1,0-.629.629l2.188,2.188Zm-8.429-4.685a3.115,3.115,0,1,1,3.115,3.115A3.119,3.119,0,0,1,96.89,104.005Z" transform="translate(-85.319 -88.874)" fill="#cecfcf" stroke="#cecfcf" stroke-width="0.5"/>
  </g>
</svg>
  
 