<svg xmlns="http://www.w3.org/2000/svg" width="60" height="60" viewBox="0 0 60 60">
  <g id="Groupe_102" data-name="Groupe 102" transform="translate(-397 -410)">
    <path id="Tracé_269" data-name="Tracé 269" d="M13,0H47A13,13,0,0,1,60,13V47A13,13,0,0,1,47,60H13A13,13,0,0,1,0,47V13A13,13,0,0,1,13,0Z" transform="translate(397 410)" fill="#45a3db"/>
    <g id="_x37_7_Essential_Icons_71_" transform="translate(386 416.256)">
      <path id="Users" d="M26.493,26.586a4.94,4.94,0,0,0,1.786-3.8,4.789,4.789,0,0,0-4.465-4.837,4.789,4.789,0,0,0-4.465,4.837,4.94,4.94,0,0,0,1.786,3.8,9.217,9.217,0,0,0-1.377.633,11.321,11.321,0,0,0-5.433-3.609,6.567,6.567,0,0,0,2.791-5.284A6.3,6.3,0,0,0,11.163,12a6.3,6.3,0,0,0-5.953,6.326A6.567,6.567,0,0,0,8,23.609,11.208,11.208,0,0,0,0,34.326a.746.746,0,0,0,.744.744H31.256A.746.746,0,0,0,32,34.326,8.216,8.216,0,0,0,26.493,26.586Zm-5.656-3.8c0-1.563,1.3-3.349,2.977-3.349s2.977,1.786,2.977,3.349-1.3,3.349-2.977,3.349S20.837,24.353,20.837,22.791ZM6.7,18.326c0-2.27,1.9-4.837,4.465-4.837s4.465,2.567,4.465,4.837-1.9,4.837-4.465,4.837S6.7,20.6,6.7,18.326ZM1.526,33.581a9.665,9.665,0,0,1,19.274,0Zm20.763,0a10.639,10.639,0,0,0-1.674-5.135,6.694,6.694,0,0,1,9.86,5.135Z" transform="translate(25.5)" fill="#fff" stroke="#fff" stroke-width="0.5"/>
    </g>
  </g>
</svg>
