<svg xmlns="http://www.w3.org/2000/svg" width="60" height="60" viewBox="0 0 60 60">
  <g id="Groupe_102" data-name="Groupe 102" transform="translate(-397 -410)">
    <path id="Tracé_276" data-name="Tracé 276" d="M13,0H47A13,13,0,0,1,60,13V47A13,13,0,0,1,47,60H13A13,13,0,0,1,0,47V13A13,13,0,0,1,13,0Z" transform="translate(397 410)" fill="#429fbd"/>
    <g id="Groupe_108" data-name="Groupe 108" transform="translate(-557.375 -509.333)">
      <g id="Groupe_107" data-name="Groupe 107" transform="translate(664 736.333)">
        <path id="Tracé_275" data-name="Tracé 275" d="M323.853,218.715v-2.706a1.884,1.884,0,0,0,1.554-1.854v-6.578a1.883,1.883,0,0,0-1.879-1.882h-1.219a3.059,3.059,0,1,0-3.085,0H318a1.883,1.883,0,0,0-1.879,1.882v6.578a1.884,1.884,0,0,0,1.553,1.854v2.706c-4.421.443-8.3,1.837-8.3,4.066,0,2.74,5.869,4.219,11.391,4.219s11.391-1.479,11.391-4.219C332.156,220.552,328.273,219.158,323.853,218.715Zm-5.331-3.521H318a1.04,1.04,0,0,1-1.036-1.039v-6.578A1.04,1.04,0,0,1,318,206.539h5.523a1.04,1.04,0,0,1,1.036,1.039v6.578a1.04,1.04,0,0,1-1.036,1.039h-.518v7.182a1.04,1.04,0,0,1-1.035,1.038h-2.416a1.04,1.04,0,0,1-1.035-1.038Zm2.244-14.35a2.215,2.215,0,1,1-2.215,2.215A2.215,2.215,0,0,1,320.766,200.844Zm0,25.312c-6.215,0-10.547-1.779-10.547-3.375,0-1.316,2.944-2.755,7.459-3.22v2.815a1.883,1.883,0,0,0,1.879,1.882h2.416a1.883,1.883,0,0,0,1.879-1.882v-2.815c4.515.466,7.46,1.9,7.46,3.22C331.313,224.377,326.981,226.156,320.766,226.156Z" transform="translate(0 0)" fill="#fff" stroke="#fff" stroke-width="1"/>
      </g>
    </g>
  </g>
</svg>
