<svg xmlns="http://www.w3.org/2000/svg" width="15" height="21" viewBox="0 0 15 21">
  <g id="paper_texture_background_cardboard_pattern_page_blank_white_letter_canvas" data-name="paper, texture, background, cardboard, pattern, page, blank, white, letter, canvas" transform="translate(-6 -2)">
    <path id="Tracé_181" data-name="Tracé 181" d="M21,8.75a.75.75,0,0,0-.21-.532l-6-6A.75.75,0,0,0,14.25,2h-6A2.25,2.25,0,0,0,6,4.25v16.5A2.25,2.25,0,0,0,8.25,23h10.5A2.25,2.25,0,0,0,21,20.75ZM15,4.557,18.442,8H15.75A.75.75,0,0,1,15,7.25ZM18.75,21.5H8.25a.75.75,0,0,1-.75-.75V4.25a.75.75,0,0,1,.75-.75H13.5V7.25A2.25,2.25,0,0,0,15.75,9.5H19.5V20.75A.75.75,0,0,1,18.75,21.5Z" fill="#05405d"/>
    <path id="Tracé_182" data-name="Tracé 182" d="M10.75,15.5h3a.75.75,0,1,0,0-1.5h-3a.75.75,0,0,0,0,1.5Z" transform="translate(-1 -3)" fill="#05405d"/>
    <path id="Tracé_183" data-name="Tracé 183" d="M18.25,18h-7.5a.75.75,0,0,0,0,1.5h7.5a.75.75,0,0,0,0-1.5Z" transform="translate(-1 -4)" fill="#05405d"/>
    <path id="Tracé_184" data-name="Tracé 184" d="M18.25,22h-7.5a.75.75,0,0,0,0,1.5h7.5a.75.75,0,0,0,0-1.5Z" transform="translate(-1 -5)" fill="#05405d"/>
  </g>
</svg>
 