<svg xmlns="http://www.w3.org/2000/svg" width="25.33" height="21.168" viewBox="0 0 25.33 21.168">
  <g id="_4230540-analysis-graph-report_115003" data-name="4230540-analysis-graph-report_115003" transform="translate(-5.156 -26.282)">
    <path id="Tracé_177" data-name="Tracé 177" d="M24.993,109.827a.5.5,0,0,0,.506-.506v-5.292l3.056-1.639v4.341a.506.506,0,1,0,1.012,0V100.7L24.5,103.422v5.9A.492.492,0,0,0,24.993,109.827Z" transform="translate(-17.158 -66.512)" fill="currentColor" stroke="currentColor" stroke-width="0.5"/>
    <path id="Tracé_178" data-name="Tracé 178" d="M85.106,39.48a.5.5,0,0,0,.506-.506V30.029l3.056-1.639V42.94a.506.506,0,0,0,1.012,0V26.7L84.6,29.422v9.552A.507.507,0,0,0,85.106,39.48Z" transform="translate(-71.18)" fill="currentColor" stroke="currentColor" stroke-linecap="round" stroke-width="0.5"/>
    <path id="Tracé_179" data-name="Tracé 179" d="M145.393,65.978a.5.5,0,0,0,.506-.506V55.829l3.056-1.639v8.732a.506.506,0,0,0,1.012,0V52.5L144.9,55.222v10.25A.493.493,0,0,0,145.393,65.978Z" transform="translate(-125.375 -23.189)" fill="currentColor" stroke="currentColor" stroke-width="0.5"/>
    <path id="Tracé_180" data-name="Tracé 180" d="M30.156,143.953a.51.51,0,0,0-.435-.253H26.23a.51.51,0,0,0-.435.253.5.5,0,0,0,0,.506l.627,1.083-2.783,1.69c-.425.263-.84.516-1.265.779-.3.192-.607.374-.9.567-.789.506-1.487.961-2.135,1.406-.334.223-.658.455-.992.678l-4.533-4.432-8.176,5.2a.507.507,0,0,0-.152.7.512.512,0,0,0,.425.233.566.566,0,0,0,.273-.081l7.488-4.766,4.574,4.462.617-.445c.344-.243.688-.486,1.042-.718.637-.435,1.326-.88,2.115-1.386.293-.192.6-.374.89-.567.415-.263.84-.516,1.255-.779l2.56-1.568.2-.121.617,1.073a.5.5,0,0,0,.87,0l1.75-3.025A.49.49,0,0,0,30.156,143.953Zm-2.186,2.267-.87-1.508h1.74Z" transform="translate(0 -105.161)" fill="currentColor" stroke="currentColor" stroke-width="0.5"/>
  </g>
</svg>
 