<svg xmlns="http://www.w3.org/2000/svg" width="30.3" height="26.975" viewBox="0 0 30.3 26.975">
  <g id="_1485477009-like_78561" data-name="1485477009-like_78561" transform="translate(-7.25 -9.75)">
    <g id="Layer_x0020_1" transform="translate(-33 -54.5)">
      <g id="Groupe_121" data-name="Groupe 121" transform="translate(41 65)">
        <path id="Tracé_279" data-name="Tracé 279" d="M47.132,65H63.668A6.146,6.146,0,0,1,69.8,71.132V76.92a6.131,6.131,0,0,1-6.132,6.063H56.089l-7.165,7.234c-.413.344-.758.344-.758,0V83.741a.81.81,0,0,0-.689-.758h-.344A6.131,6.131,0,0,1,41,76.92V71.132A6.146,6.146,0,0,1,47.132,65Z" transform="translate(-41 -65)" fill="none" stroke="#008eed" stroke-width="1.5" fill-rule="evenodd"/>
      </g>
    </g>
  </g>
</svg>
