<svg xmlns="http://www.w3.org/2000/svg" width="27.322" height="27.3" viewBox="0 0 27.322 27.3">
  <g id="_1485477009-like_78561" data-name="1485477009-like_78561" transform="translate(-7.837 -9.35)">
    <g id="wondicon-ui-free-graph_111268" transform="translate(-16.31 -14.81)">
      <path id="Tracé_272" data-name="Tracé 272" d="M25.2,51.31a.892.892,0,0,1-.892-.892V25.2a.892.892,0,0,1,1.784,0V50.418A.892.892,0,0,1,25.2,51.31Z" transform="translate(0 0)" fill="#c81111" stroke="#c81111" stroke-width="0.3"/>
      <path id="Tracé_273" data-name="Tracé 273" d="M25.2,60.146a.892.892,0,0,1-.687-1.461l3.69-4.459a.892.892,0,0,1,1.115-.214l5.172,2.832,7.134-7.134a.892.892,0,0,1,1.059-.152l3.328,1.821,3.642-5.966a.895.895,0,0,1,1.53.927L47.1,53.03a.892.892,0,0,1-1.19.319l-3.487-1.91-7.134,7.134a.892.892,0,0,1-1.059.152l-5.119-2.8-3.227,3.9A.892.892,0,0,1,25.2,60.146Z" transform="translate(0 -16.986)" fill="#c81111" stroke="#c81111" stroke-width="0.3"/>
      <path id="Tracé_274" data-name="Tracé 274" d="M50.418,146.784H25.2a.892.892,0,0,1,0-1.784H50.418a.892.892,0,1,1,0,1.784Z" transform="translate(0 -99.164)" fill="#c81111" stroke="#c81111" stroke-width="0.3"/>
    </g>
  </g>
</svg>
