<svg xmlns="http://www.w3.org/2000/svg" width="28.8" height="27" viewBox="0 0 28.8 27">
  <g id="_1485477009-like_78561" data-name="1485477009-like_78561" transform="translate(-8 -9.5)">
    <g id="Icon-Like" transform="translate(8 9.5)">
      <path id="Fill-4_2_" d="M-35.8-504.76c0-1.92-1.5-2.94-3.6-2.94h-6.06a18.54,18.54,0,0,0,.66-4.5c0-5.22-1.44-6.3-2.7-6.3a3.639,3.639,0,0,0-2.28.6.867.867,0,0,0-.42.6l-.9,4.86c-.96,2.58-3.42,4.8-5.4,6.3v12.84a5.434,5.434,0,0,1,2.28.78,7.037,7.037,0,0,0,3.12.96h8.58a3.044,3.044,0,0,0,3.12-2.7,2.25,2.25,0,0,0-.06-.66,2.667,2.667,0,0,0,1.86-2.46,3.129,3.129,0,0,0-.3-1.38,2.95,2.95,0,0,0,1.38-2.22,2.5,2.5,0,0,0-.6-1.5,3.051,3.051,0,0,0,1.32-2.28Zm-1.86,0c0,1.14-1.2,1.26-1.38,1.8-.18.6.72.84.72,1.92,0,1.14-1.38,1.14-1.56,1.68-.24.66.42.9.42,1.98v.18c-.18.9-1.56.96-1.8,1.32-.24.42.06.66.06,1.62,0,.54-.6.9-1.32.9H-51.1a5.434,5.434,0,0,1-2.28-.78,10.137,10.137,0,0,0-2.22-.9v-9.54c2.22-1.68,5.1-4.26,6.24-7.38,0-.06,0-.12.06-.12l.84-4.5a2.5,2.5,0,0,1,1.02-.12c.18,0,.9,1.08.9,4.5a16.594,16.594,0,0,1-.72,4.5h-.24a.923.923,0,0,0-.9.9.923.923,0,0,0,.9.9h8.1c.9,0,1.74.42,1.74,1.14Z" transform="translate(64.6 518.5)" fill="#efaa46"/>
      <path id="Fill-6_2_" d="M-62.8-491.5h-5.4a1.768,1.768,0,0,1-1.8-1.8v-12.6a1.768,1.768,0,0,1,1.8-1.8h5.4a1.768,1.768,0,0,1,1.8,1.8v12.6a1.768,1.768,0,0,1-1.8,1.8Zm-5.4-14.4v12.6h5.4v-12.6ZM-70-518.5" transform="translate(70 518.5)" fill="#efaa46"/>
    </g>
  </g>
</svg>
