<svg xmlns="http://www.w3.org/2000/svg" width="29.543" height="15.06" viewBox="0 0 29.543 15.06">
  <g id="view_icon-icons.com_64604" transform="translate(0.25 -10.72)">
    <g id="Groupe_122" data-name="Groupe 122" transform="translate(0 10.97)">
      <path id="Tracé_283" data-name="Tracé 283" d="M29.041,18.267a.659.659,0,0,0-.388-.6h.036c-3.486-3.653-8.72-6.7-14.168-6.7S3.838,14.016.352,17.669H.388a.655.655,0,0,0,0,1.2H.352C3.843,22.518,9.064,25.53,14.52,25.53s10.7-3.012,14.188-6.666h-.056a.656.656,0,0,0,.388-.6Zm-2.257.621c-3.165,2.849-7.668,5.322-12.263,5.322s-9.1-2.482-12.269-5.345l-.6-.591.774-.736-.011-.012C5.566,14.747,10,12.289,14.52,12.289c4.6,0,9.1,2.515,12.264,5.374l.593.6-.594.624ZM14.52,13.644a4.62,4.62,0,1,0,4.62,4.62A4.62,4.62,0,0,0,14.52,13.644Zm0,7.92a3.3,3.3,0,1,1,3.3-3.3A3.3,3.3,0,0,1,14.52,21.565Z" transform="translate(0 -10.97)" fill="#a067b1" stroke="#a067b1" stroke-width="0.5" fill-rule="evenodd"/>
    </g>
  </g>
</svg>
