<svg xmlns="http://www.w3.org/2000/svg" width="21" height="21" viewBox="0 0 21 21">
  <g id="Layer_2" data-name="Layer 2" transform="translate(-3 -3)">
    <path id="Tracé_163" data-name="Tracé 163" d="M13.5,24A10.5,10.5,0,1,1,24,13.5,10.5,10.5,0,0,1,13.5,24Zm0-19.385A8.885,8.885,0,1,0,22.385,13.5,8.885,8.885,0,0,0,13.5,4.615Z" transform="translate(0 0)" fill="#cecfcf"/>
    <path id="Tracé_164" data-name="Tracé 164" d="M15.885,18.385a.8.8,0,0,1-.885-.67V9.67A.8.8,0,0,1,15.885,9a.8.8,0,0,1,.885.67v8.044A.8.8,0,0,1,15.885,18.385Z" transform="translate(-2.385 -0.192)" fill="#cecfcf"/>
    <path id="Tracé_165" data-name="Tracé 165" d="M17.714,16.769H9.67A.8.8,0,0,1,9,15.885.8.8,0,0,1,9.67,15h8.044a.8.8,0,0,1,.67.885A.8.8,0,0,1,17.714,16.769Z" transform="translate(-0.192 -2.385)" fill="#cecfcf"/>
  </g>
</svg>
