<svg 
 xmlns="http://www.w3.org/2000/svg"
 xmlns:xlink="http://www.w3.org/1999/xlink"
 width="32px" height="22px">
<path fillRule="evenodd"  fill="rgb(255, 255, 255)"
 d="M0.829,10.547 L10.427,0.957 C10.677,0.708 11.83,0.708 11.333,0.957 C11.583,1.207 11.583,1.612 11.333,1.861 L2.826,10.360 L30.719,10.360 C31.72,10.360 31.358,10.645 31.358,10.999 C31.358,11.352 31.72,11.638 30.719,11.638 L2.826,11.638 L11.333,20.136 C11.583,20.386 11.583,20.791 11.333,21.40 C11.207,21.165 11.44,21.228 10.880,21.228 C10.717,21.228 10.553,21.165 10.427,21.40 L0.829,11.451 C0.579,11.201 0.579,10.797 0.829,10.547 Z"/>
</svg>