<svg xmlns="http://www.w3.org/2000/svg" width="21" height="23.219" viewBox="0 0 21 23.219">
  <g id="settinglines_87251" transform="translate(0.5 -4.003)">
    <path id="Tracé_154" data-name="Tracé 154" d="M4.844,53.92H.667a.667.667,0,0,1,0-1.333H4.844a.667.667,0,0,1,0,1.333Z" transform="translate(0 -45.697)" fill="#cecfcf" stroke="#cecfcf" stroke-width="1"/>
    <path id="Tracé_155" data-name="Tracé 155" d="M87.19,10.61a3.054,3.054,0,1,1,3.054-3.053A3.057,3.057,0,0,1,87.19,10.61Zm0-4.774a1.72,1.72,0,1,0,1.72,1.72A1.722,1.722,0,0,0,87.19,5.836Z" transform="translate(-80.632)" fill="#cecfcf" stroke="#cecfcf" stroke-width="1"/>
    <path id="Tracé_156" data-name="Tracé 156" d="M239.636,53.92h-9.964a.667.667,0,0,1,0-1.333h9.964a.667.667,0,0,1,0,1.333Z" transform="translate(-220.302 -45.697)" fill="#cecfcf" stroke="#cecfcf" stroke-width="1"/>
    <path id="Tracé_157" data-name="Tracé 157" d="M267.483,172.881a3.053,3.053,0,1,1,3.054-3.053A3.057,3.057,0,0,1,267.483,172.881Zm0-4.774a1.72,1.72,0,1,0,1.72,1.72A1.722,1.722,0,0,0,267.483,168.107Z" transform="translate(-253.415 -154.215)" fill="#cecfcf" stroke="#cecfcf" stroke-width="1"/>
    <path id="Tracé_158" data-name="Tracé 158" d="M11.377,216.183H.667a.667.667,0,1,1,0-1.333h10.71a.667.667,0,1,1,0,1.333Z" transform="translate(0 -199.904)" fill="#cecfcf" stroke="#cecfcf" stroke-width="1"/>
    <path id="Tracé_159" data-name="Tracé 159" d="M364.685,216.183h-3.431a.667.667,0,1,1,0-1.333h3.431a.667.667,0,1,1,0,1.333Z" transform="translate(-345.352 -199.904)" fill="#cecfcf" stroke="#cecfcf" stroke-width="1"/>
    <path id="Tracé_160" data-name="Tracé 160" d="M72.167,335.144a3.054,3.054,0,1,1,3.054-3.054A3.057,3.057,0,0,1,72.167,335.144Zm0-4.774a1.72,1.72,0,1,0,1.72,1.72A1.722,1.722,0,0,0,72.167,330.37Z" transform="translate(-66.234 -308.422)" fill="#cecfcf" stroke="#cecfcf" stroke-width="1"/>
    <path id="Tracé_161" data-name="Tracé 161" d="M225.356,378.447h-10.71a.667.667,0,1,1,0-1.333h10.71a.667.667,0,1,1,0,1.333Z" transform="translate(-206.022 -354.112)" fill="#cecfcf" stroke="#cecfcf" stroke-width="1"/>
    <path id="Tracé_162" data-name="Tracé 162" d="M4.1,378.446H.667a.667.667,0,0,1,0-1.333H4.1a.667.667,0,0,1,0,1.333Z" transform="translate(0 -354.111)" fill="#cecfcf" stroke="#cecfcf" stroke-width="1"/>
  </g>
</svg>
