<svg 
 xmlns="http://www.w3.org/2000/svg"
 xmlns:xlink="http://www.w3.org/1999/xlink"
 width="28px" height="28px">
<path fillRule="evenodd"  fill="#6F6E81"
 d="M14.0,27.440 C6.571,27.440 0.560,21.429 0.560,14.0 C0.560,6.571 6.571,0.560 14.0,0.560 C21.428,0.560 27.440,6.570 27.440,14.0 C27.440,21.428 21.428,27.440 14.0,27.440 ZM14.0,2.660 C7.732,2.660 2.660,7.732 2.660,14.0 C2.660,20.267 7.732,25.339 14.0,25.339 C20.267,25.339 25.339,20.268 25.339,14.0 C25.339,7.732 20.267,2.660 14.0,2.660 ZM14.0,10.526 C13.216,10.526 12.582,9.891 12.582,9.109 C12.582,8.326 13.216,7.691 14.0,7.691 C14.783,7.691 15.417,8.326 15.417,9.109 C15.417,9.891 14.783,10.526 14.0,10.526 ZM14.0,11.812 C14.579,11.812 15.49,12.282 15.49,12.862 L15.49,19.623 C15.49,20.203 14.579,20.674 14.0,20.674 C13.419,20.674 12.950,20.203 12.950,19.624 L12.950,12.862 C12.950,12.282 13.419,11.812 14.0,11.812 Z"/>
</svg>