<?xml version="1.0" encoding="utf-8"?>
<!-- Generator: Adobe Illustrator 25.4.1, SVG Export Plug-In . SVG Version: 6.00 Build 0)  -->
<svg version="1.1" id="Calque_1" xmlns="http://www.w3.org/2000/svg" xmlns:xlink="http://www.w3.org/1999/xlink" x="0px" y="0px"
	 viewBox="0 0 1080 1080" style="enable-background:new 0 0 1080 1080;" xml:space="preserve">
<style type="text/css">
	.st0{fill:url(#SVGID_1_);}
	.st1{fill:url(#SVGID_00000147918466465026372290000015790567151145063576_);}
	.st2{fill:url(#SVGID_00000003790694288487458250000005329186070708381859_);}
	.st3{fill:url(#SVGID_00000022532236296778982410000005521033330950491316_);}
	
		.st4{clip-path:url(#SVGID_00000143614558891289015220000009865341992734537608_);fill:url(#SVGID_00000005239837794464074810000015737879710920414893_);}
	.st5{fill:#6AC4D6;}
	.st6{fill:#3F61AA;}
</style>
<g>
	<g>
		
			<linearGradient id="SVGID_1_" gradientUnits="userSpaceOnUse" x1="1106.1903" y1="83.7929" x2="1106.1903" y2="-90.495" gradientTransform="matrix(0 -1 1 0 678.3284 1645.8564)">
			<stop  offset="0" style="stop-color:#46A1D9"/>
			<stop  offset="1" style="stop-color:#49B9B5"/>
		</linearGradient>
		<path class="st0" d="M602.74,465.17c-9.33,5.39-14.9,15.04-14.9,25.82v97.36c0,10.78,5.57,20.43,14.9,25.81
			c9.33,5.39,20.48,5.39,29.81,0l0.28-0.16l11.76-6.79l33-19.05l4.53,2.61l10.65,6.15l10.65-6.15l43.81-25.29
			c3.82-2.21,7.02-5.13,9.45-8.56c3.51-4.93,5.45-10.9,5.45-17.26c0-6.36-1.94-12.33-5.45-17.26c-2.44-3.42-5.63-6.35-9.45-8.56
			l-43.81-25.29l-10.65-6.15l-10.65,6.15l-4.53,2.61l-33-19.05l-11.76-6.79l-0.28-0.16C623.21,459.79,612.07,459.79,602.74,465.17z
			 M666.93,497.32l10.65,6.15l10.65-6.15l4.53-2.61l49.13,28.37c6,3.46,9.58,9.66,9.58,16.59c0,6.93-3.58,13.13-9.58,16.59
			l-49.13,28.37l-4.53-2.61l-10.65-6.15l-10.65,6.15l-33.18,19.16l-6.53,3.77c-0.98,0.57-2,1.03-3.03,1.41
			c-5.28,1.95-11.11,1.48-16.13-1.41c-6-3.46-9.58-9.66-9.58-16.59v-97.36c0-6.93,3.58-13.13,9.58-16.59
			c5.02-2.9,10.84-3.36,16.13-1.41c1.03,0.38,2.05,0.85,3.03,1.41l6.53,3.77L666.93,497.32z"/>
		
			<linearGradient id="SVGID_00000081645267527983851690000000882073331938454709_" gradientUnits="userSpaceOnUse" x1="1121.1183" y1="-0.7763" x2="1121.1183" y2="-78.9007" gradientTransform="matrix(0 -1 1 0 678.3284 1645.8564)">
			<stop  offset="0.2485" style="stop-color:#4E83C3;stop-opacity:0"/>
			<stop  offset="0.3005" style="stop-color:#4B7DBA;stop-opacity:0.1025"/>
			<stop  offset="0.4679" style="stop-color:#416EA2;stop-opacity:0.4329"/>
			<stop  offset="0.6237" style="stop-color:#3C6594;stop-opacity:0.7404"/>
			<stop  offset="0.7553" style="stop-color:#3A628F"/>
			<stop  offset="0.8231" style="stop-color:#3E6898;stop-opacity:0.7226"/>
			<stop  offset="0.9353" style="stop-color:#4778B1;stop-opacity:0.2644"/>
			<stop  offset="1" style="stop-color:#4E83C3;stop-opacity:0"/>
		</linearGradient>
		<path style="fill:url(#SVGID_00000081645267527983851690000000882073331938454709_);" d="M598.46,588.34v-97.36
			c0-6.93,3.58-13.13,9.58-16.59c5.02-2.9,10.84-3.36,16.13-1.41c1.03,0.38,2.05,0.85,3.03,1.41l6.53,3.77l33.18,19.16l10.65,6.15
			v-12.3l-33-19.05l-11.76-6.79l-0.28-0.16c-9.33-5.39-20.48-5.39-29.81,0c-9.33,5.39-14.9,15.04-14.9,25.82v97.36"/>
		<g id="XMLID_00000156582392333659149250000008458732968206274967_">
			<g id="XMLID_00000035500551913404041800000015589647527953941384_">
				<g id="XMLID_00000154419326186694606470000011660878753453059506_">
					
						<linearGradient id="SVGID_00000063635593893678532960000000077263413276662423_" gradientUnits="userSpaceOnUse" x1="1106.1903" y1="119.1129" x2="1106.1903" y2="-62.901" gradientTransform="matrix(0 -1 1 0 678.3284 1645.8564)">
						<stop  offset="0" style="stop-color:#49B9B5"/>
						<stop  offset="0.9997" style="stop-color:#46A1D9"/>
					</linearGradient>
					<path style="fill:url(#SVGID_00000063635593893678532960000000077263413276662423_);" d="M797.44,539.67
						c0,13.63-7.05,25.83-18.85,32.65l-106.62,61.56c-11.8,6.81-25.89,6.81-37.7,0c-11.8-6.81-18.85-19.02-18.85-32.65V478.11
						c0-13.63,7.05-25.83,18.85-32.65c11.8-6.81,25.89-6.81,37.7,0l106.62,61.56C790.4,513.83,797.44,526.04,797.44,539.67z
						 M628.9,601.22c0,8.76,4.53,16.6,12.11,20.98c7.58,4.38,16.64,4.38,24.23,0l106.62-61.56c7.58-4.38,12.11-12.22,12.11-20.98
						c0-8.76-4.53-16.6-12.11-20.98l-106.62-61.56c-7.58-4.38-16.64-4.38-24.23,0c-7.58,4.38-12.11,12.22-12.11,20.98V601.22z"/>
				</g>
			</g>
		</g>
		<g id="XMLID_00000082361117155122837120000011934585399572801439_">
			<g id="XMLID_00000123422198562416325100000017058954521927105182_">
				<g id="XMLID_00000041279845556112127400000008590764049356735120_">
					
						<linearGradient id="SVGID_00000076580115043770524950000011630389621902165387_" gradientUnits="userSpaceOnUse" x1="1046.5714" y1="22.8207" x2="1187.8773" y2="-58.7623" gradientTransform="matrix(0 -1 1 0 678.3284 1645.8564)">
						<stop  offset="0" style="stop-color:#4E83C3;stop-opacity:0"/>
						<stop  offset="0.0243" style="stop-color:#497BB7;stop-opacity:0.1374"/>
						<stop  offset="0.0779" style="stop-color:#416DA1;stop-opacity:0.4413"/>
						<stop  offset="0.1295" style="stop-color:#3C6593;stop-opacity:0.7338"/>
						<stop  offset="0.1765" style="stop-color:#3A628F"/>
						<stop  offset="0.2887" style="stop-color:#3F6A9C;stop-opacity:0.6775"/>
						<stop  offset="0.495" style="stop-color:#4C80BE;stop-opacity:0.0845"/>
						<stop  offset="0.5244" style="stop-color:#4E83C3;stop-opacity:0"/>
					</linearGradient>
					<path style="fill:url(#SVGID_00000076580115043770524950000011630389621902165387_);" d="M778.46,572.31l-106.62,61.56
						c-11.8,6.81-25.89,6.81-37.7,0c-11.8-6.81-18.85-19.02-18.85-32.65V478.11h13.47v123.12c0,8.76,4.53,16.6,12.11,20.98
						c7.58,4.38,16.64,4.38,24.22,0l106.62-61.56"/>
				</g>
			</g>
		</g>
		<g>
			<defs>
				
					<rect id="SVGID_00000093862885170266708160000003009930649682766748_" x="633.14" y="468.59" transform="matrix(6.123234e-17 -1 1 6.123234e-17 93.4913 1274.4905)" width="101.7" height="243.82"/>
			</defs>
			<clipPath id="SVGID_00000019666022832147497020000016642258291694913924_">
				<use xlink:href="#SVGID_00000093862885170266708160000003009930649682766748_"  style="overflow:visible;"/>
			</clipPath>
			
				<linearGradient id="SVGID_00000036958840414003146590000013646284530271829409_" gradientUnits="userSpaceOnUse" x1="1106.1903" y1="83.7929" x2="1106.1903" y2="-90.495" gradientTransform="matrix(0 -1 1 0 678.3284 1645.8564)">
				<stop  offset="0" style="stop-color:#46A1D9"/>
				<stop  offset="1" style="stop-color:#49B9B5"/>
			</linearGradient>
			
				<path style="clip-path:url(#SVGID_00000019666022832147497020000016642258291694913924_);fill:url(#SVGID_00000036958840414003146590000013646284530271829409_);" d="
				M602.74,465.17c-9.33,5.39-14.9,15.04-14.9,25.82v97.36c0,10.78,5.57,20.43,14.9,25.81c9.33,5.39,20.48,5.39,29.81,0l0.28-0.16
				l11.76-6.79l33-19.05l4.53,2.61l10.65,6.15l10.65-6.15l43.81-25.29c3.82-2.21,7.02-5.13,9.45-8.56
				c3.51-4.93,5.45-10.9,5.45-17.26c0-6.36-1.94-12.33-5.45-17.26c-2.44-3.42-5.63-6.35-9.45-8.56l-43.81-25.29l-10.65-6.15
				l-10.65,6.15l-4.53,2.61l-33-19.05l-11.76-6.79l-0.28-0.16C623.21,459.79,612.07,459.79,602.74,465.17z M666.93,497.32
				l10.65,6.15l10.65-6.15l4.53-2.61l49.13,28.37c6,3.46,9.58,9.66,9.58,16.59c0,6.93-3.58,13.13-9.58,16.59l-49.13,28.37
				l-4.53-2.61l-10.65-6.15l-10.65,6.15l-33.18,19.16l-6.53,3.77c-0.98,0.57-2,1.03-3.03,1.41c-5.28,1.95-11.11,1.48-16.13-1.41
				c-6-3.46-9.58-9.66-9.58-16.59v-97.36c0-6.93,3.58-13.13,9.58-16.59c5.02-2.9,10.84-3.36,16.13-1.41
				c1.03,0.38,2.05,0.85,3.03,1.41l6.53,3.77L666.93,497.32z"/>
		</g>
	</g>
	<g>
		<g>
			<path class="st5" d="M316.77,641.52c-6.13,0-11.88-1.01-17.08-3.01c-5.22-2-9.82-4.85-13.66-8.46c-3.86-3.62-6.93-8-9.12-13.04
				c-2.19-5.04-3.31-10.64-3.31-16.66v-0.21c0-5.7,1.09-11.14,3.25-16.17c2.15-5.02,5.14-9.46,8.9-13.19
				c3.77-3.75,8.33-6.71,13.57-8.8c5.23-2.09,10.96-3.15,17.03-3.15c6.91,0,12.99,1.02,18.08,3.04c5.06,2.01,9.75,4.86,13.95,8.47
				l1.49,1.29l-14.9,17.83l-1.53-1.28c-2.58-2.15-5.24-3.83-7.91-4.98c-2.58-1.12-5.64-1.68-9.08-1.68c-2.44,0-4.73,0.48-6.79,1.43
				c-2.09,0.96-3.92,2.29-5.45,3.97c-1.56,1.7-2.81,3.72-3.74,6c-0.92,2.26-1.38,4.74-1.38,7.35v0.21c0,2.76,0.47,5.36,1.39,7.71
				c0.91,2.34,2.2,4.34,3.83,5.97c1.64,1.64,3.6,2.95,5.84,3.9c2.22,0.94,4.74,1.42,7.48,1.42c4.04,0,7.45-0.77,10.14-2.29v-6.07
				h-14.94v-19.36h38.84v36.99l-0.73,0.6c-4.18,3.46-9.16,6.38-14.8,8.68C330.44,640.34,323.93,641.52,316.77,641.52z
				 M316.35,562.82c-5.56,0-10.79,0.96-15.54,2.87c-4.74,1.9-8.86,4.56-12.24,7.93c-3.39,3.37-6.1,7.39-8.04,11.93
				c-1.94,4.53-2.93,9.44-2.93,14.6v0.21c0,5.47,1,10.53,2.97,15.06c1.98,4.53,4.73,8.47,8.19,11.72c3.47,3.25,7.63,5.83,12.36,7.64
				c4.74,1.82,10.01,2.74,15.65,2.74c6.64,0,12.64-1.08,17.85-3.2c4.93-2.02,9.31-4.53,13.03-7.47v-31.09h-30.84v11.36h14.94v12.25
				l-0.89,0.59c-3.49,2.32-7.94,3.5-13.25,3.5c-3.28,0-6.32-0.59-9.04-1.74c-2.71-1.15-5.09-2.75-7.1-4.75
				c-2.02-2.01-3.61-4.48-4.72-7.33c-1.11-2.82-1.67-5.91-1.67-9.17v-0.21c0-3.13,0.56-6.11,1.68-8.85c1.1-2.72,2.62-5.14,4.49-7.2
				c1.9-2.07,4.16-3.72,6.74-4.9c2.6-1.19,5.44-1.79,8.46-1.79c3.99,0,7.58,0.68,10.66,2.01c2.47,1.07,4.93,2.52,7.32,4.33
				l9.81-11.74c-3.46-2.73-7.25-4.92-11.29-6.53C328.33,563.75,322.75,562.82,316.35,562.82z"/>
		</g>
		<g>
			<path class="st5" d="M399.37,641.52c-6.08,0-11.8-1.09-16.99-3.24c-5.2-2.15-9.74-5.12-13.49-8.82s-6.75-8.09-8.9-13.06
				c-2.16-4.98-3.25-10.38-3.25-16.05v-0.21c0-5.63,1.09-11.04,3.25-16.07c2.15-5.02,5.19-9.47,9.02-13.21
				c3.83-3.74,8.4-6.71,13.6-8.84c5.2-2.13,10.92-3.21,16.99-3.21c6.07,0,11.78,1.08,16.97,3.21c5.18,2.13,9.72,5.09,13.49,8.79
				c3.78,3.7,6.78,8.11,8.93,13.09c2.16,5,3.25,10.39,3.25,16.02v0.21c0,5.67-1.09,11.08-3.25,16.1c-2.15,5.01-5.2,9.44-9.05,13.18
				c-3.84,3.73-8.41,6.71-13.58,8.86C411.16,640.43,405.45,641.52,399.37,641.52z M399.58,562.82c-5.55,0-10.76,0.98-15.47,2.91
				c-4.72,1.93-8.86,4.62-12.32,8c-3.45,3.37-6.19,7.38-8.14,11.92c-1.94,4.53-2.93,9.41-2.93,14.49v0.21
				c0,5.12,0.98,9.98,2.92,14.46c1.95,4.49,4.65,8.46,8.04,11.8c3.39,3.34,7.5,6.02,12.21,7.97c4.71,1.95,9.92,2.94,15.47,2.94
				c5.55,0,10.74-0.99,15.44-2.94c4.71-1.95,8.85-4.65,12.33-8.03c3.47-3.37,6.22-7.37,8.16-11.89c1.94-4.51,2.93-9.4,2.93-14.52
				v-0.21c0-5.08-0.98-9.94-2.92-14.44c-1.95-4.5-4.66-8.48-8.06-11.82c-3.41-3.34-7.51-6.01-12.21-7.94
				C410.33,563.8,405.13,562.82,399.58,562.82z M399.58,622.57c-3.17,0-6.11-0.62-8.74-1.85c-2.61-1.22-4.88-2.89-6.74-4.96
				c-1.84-2.05-3.3-4.44-4.33-7.1c-1.04-2.67-1.56-5.53-1.56-8.51v-0.21c0-2.97,0.5-5.83,1.5-8.49c1-2.68,2.45-5.06,4.31-7.07
				c1.86-2.01,4.1-3.64,6.67-4.84c2.59-1.21,5.52-1.82,8.68-1.82c3.17,0,6.11,0.63,8.75,1.88c2.6,1.23,4.87,2.89,6.76,4.94
				c1.89,2.04,3.37,4.43,4.41,7.1c1.04,2.67,1.56,5.53,1.56,8.51v0.21c0,2.98-0.52,5.84-1.56,8.51c-1.03,2.66-2.47,5.03-4.28,7.05
				c-1.84,2.05-4.09,3.69-6.71,4.87C405.68,621.97,402.74,622.57,399.58,622.57z M399.37,581.72c-2.58,0-4.93,0.49-6.99,1.45
				c-2.09,0.98-3.92,2.3-5.42,3.93c-1.5,1.63-2.68,3.57-3.5,5.76c-0.83,2.21-1.25,4.59-1.25,7.08v0.21c0,2.48,0.43,4.86,1.29,7.06
				c0.86,2.21,2.06,4.19,3.58,5.88c1.5,1.67,3.33,3.02,5.45,4.01c2.1,0.98,4.47,1.48,7.05,1.48c2.59,0,4.97-0.48,7.07-1.43
				c2.11-0.95,3.92-2.26,5.38-3.89c1.48-1.66,2.67-3.62,3.53-5.83c0.86-2.2,1.29-4.58,1.29-7.06v-0.21c0-2.48-0.43-4.86-1.29-7.06
				c-0.85-2.2-2.07-4.16-3.62-5.83c-1.54-1.67-3.4-3.03-5.54-4.04C404.31,582.22,401.95,581.72,399.37,581.72z"/>
		</g>
		<g>
			<path class="st5" d="M533.81,640.52h-21.12l-13.83-39.48l-13.73,39.48h-21.13l-26.61-80.22h26.43l11.75,39.17l13.08-39.38h20.94
				l13.03,39.38l11.8-39.17h26L533.81,640.52z M515.52,636.52h15.4l23.96-72.22h-17.49l-14.59,48.45l-16.1-48.66h-15.16
				l-16.16,48.66l-14.53-48.45h-17.91l23.96,72.22h15.4l16.56-47.61L515.52,636.52z"/>
		</g>
		<g>
			<path class="st6" d="M275.46,440.42h43c9.95,0,18.84,1.36,26.67,4.08c7.83,2.72,14.41,6.52,19.75,11.39
				c5.34,4.87,9.42,10.68,12.25,17.42c2.83,6.74,4.24,14.15,4.24,22.24v0.31c0,8.09-1.44,15.55-4.32,22.39
				c-2.88,6.84-7.02,12.75-12.44,17.73c-5.42,4.98-12.08,8.88-19.98,11.7c-7.9,2.83-16.83,4.24-26.79,4.24h-42.38V440.42z
				 M318.92,524.55c9.23,0,16.65-2.45,22.28-7.35c5.62-4.9,8.44-11.86,8.44-20.88v-0.31c0-8.91-2.81-15.83-8.44-20.76
				c-5.62-4.92-13.05-7.39-22.28-7.39h-12.6v56.68H318.92z"/>
			<path class="st6" d="M397.92,440.42h31.1v111.5h-31.1V440.42z"/>
			<g>
				<path class="st6" d="M485.57,552.33c-2.59-2.65-4.63-5.83-6.09-9.56c-1.5-3.83-2.26-7.98-2.26-12.44v-0.31
					c0-4.25,0.75-8.23,2.26-11.94c1.5-3.71,3.52-6.95,6.06-9.72c2.54-2.77,5.53-4.95,8.98-6.53c3.45-1.58,7.19-2.37,11.24-2.37
					c5.49,0,10.34,0.91,14.54,2.72c4.2,1.82,8.32,4.41,12.36,7.78l18.19-21.77c-5.96-5.13-12.53-9.12-19.71-11.97
					c-7.18-2.85-15.69-4.28-25.54-4.28c-8.6,0-16.6,1.48-23.99,4.43c-7.39,2.95-13.72,7.06-19.01,12.32
					c-5.29,5.26-9.45,11.43-12.48,18.5c-3.03,7.07-4.55,14.63-4.55,22.66v0.31c0,8.02,1.39,15.4,4.14,22.16H485.57z"/>
				<polygon class="st6" points="503.35,543.08 525.35,543.08 525.35,552.33 554.67,552.33 554.67,520.45 503.35,520.45 				"/>
			</g>
		</g>
	</g>
</g>
</svg>
