<?xml version="1.0" encoding="utf-8"?>
<!-- Generator: Adobe Illustrator 25.4.1, SVG Export Plug-In . SVG Version: 6.00 Build 0)  -->
<svg version="1.1" id="Calque_1" xmlns="http://www.w3.org/2000/svg" xmlns:xlink="http://www.w3.org/1999/xlink" x="0px" y="0px"
	 viewBox="0 0 1080 1080" style="enable-background:new 0 0 1080 1080;" xml:space="preserve">
<style type="text/css">
	.st0{fill:url(#SVGID_1_);}
	.st1{fill:url(#SVGID_00000087402848911936783070000014468482334502947491_);}
	.st2{fill:url(#SVGID_00000085953860905469237440000006120425223733090485_);}
	.st3{fill:url(#SVGID_00000065791110799399773220000009622047994327126459_);}
	
		.st4{clip-path:url(#SVGID_00000103954832419992587830000018407035884874812820_);fill:url(#SVGID_00000062896267025834437520000003509153176025031066_);}
	.st5{fill:none;stroke:#6AC4D6;stroke-miterlimit:10;}
	.st6{fill:#3F61AA;}
</style>
<g>
	<g>
		
			<linearGradient id="SVGID_1_" gradientUnits="userSpaceOnUse" x1="1106.1903" y1="83.7929" x2="1106.1903" y2="-90.495" gradientTransform="matrix(6.123234e-17 -1 1 6.123234e-17 678.3284 1645.8564)">
			<stop  offset="0" style="stop-color:#46A1D9"/>
			<stop  offset="1" style="stop-color:#49B9B5"/>
		</linearGradient>
		<path class="st0" d="M602.74,465.17c-9.33,5.39-14.9,15.04-14.9,25.82v97.36c0,10.78,5.57,20.43,14.9,25.81
			c9.33,5.39,20.48,5.39,29.81,0l0.28-0.16l11.76-6.79l33-19.05l4.53,2.61l10.65,6.15l10.65-6.15l43.81-25.29
			c3.82-2.21,7.02-5.13,9.45-8.56c3.51-4.93,5.45-10.9,5.45-17.26c0-6.36-1.94-12.33-5.45-17.26c-2.44-3.42-5.63-6.35-9.45-8.56
			l-43.81-25.29l-10.65-6.15l-10.65,6.15l-4.53,2.61l-33-19.05l-11.76-6.79l-0.28-0.16C623.21,459.79,612.07,459.79,602.74,465.17z
			 M666.93,497.32l10.65,6.15l10.65-6.15l4.53-2.61l49.13,28.37c6,3.46,9.58,9.66,9.58,16.59c0,6.93-3.58,13.13-9.58,16.59
			l-49.13,28.37l-4.53-2.61l-10.65-6.15l-10.65,6.15l-33.18,19.16l-6.53,3.77c-0.98,0.57-2,1.03-3.03,1.41
			c-5.28,1.95-11.11,1.48-16.13-1.41c-6-3.46-9.58-9.66-9.58-16.59v-97.36c0-6.93,3.58-13.13,9.58-16.59
			c5.02-2.9,10.84-3.36,16.13-1.41c1.03,0.38,2.05,0.85,3.03,1.41l6.53,3.77L666.93,497.32z"/>
		
			<linearGradient id="SVGID_00000130611207153021362470000008794752072070248366_" gradientUnits="userSpaceOnUse" x1="1121.1183" y1="-0.7763" x2="1121.1183" y2="-78.9007" gradientTransform="matrix(6.123234e-17 -1 1 6.123234e-17 678.3284 1645.8564)">
			<stop  offset="0.2485" style="stop-color:#4E83C3;stop-opacity:0"/>
			<stop  offset="0.3005" style="stop-color:#4B7DBA;stop-opacity:0.1025"/>
			<stop  offset="0.4679" style="stop-color:#416EA2;stop-opacity:0.4329"/>
			<stop  offset="0.6237" style="stop-color:#3C6594;stop-opacity:0.7404"/>
			<stop  offset="0.7553" style="stop-color:#3A628F"/>
			<stop  offset="0.8231" style="stop-color:#3E6898;stop-opacity:0.7226"/>
			<stop  offset="0.9353" style="stop-color:#4778B1;stop-opacity:0.2644"/>
			<stop  offset="1" style="stop-color:#4E83C3;stop-opacity:0"/>
		</linearGradient>
		<path style="fill:url(#SVGID_00000130611207153021362470000008794752072070248366_);" d="M598.46,588.34v-97.36
			c0-6.93,3.58-13.13,9.58-16.59c5.02-2.9,10.84-3.36,16.13-1.41c1.03,0.38,2.05,0.85,3.03,1.41l6.53,3.77l33.18,19.16l10.65,6.15
			v-12.3l-33-19.05l-11.76-6.79l-0.28-0.16c-9.33-5.39-20.48-5.39-29.81,0c-9.33,5.39-14.9,15.04-14.9,25.82v97.36"/>
		<g id="XMLID_00000156582392333659149250000008458732968206274967_">
			<g id="XMLID_00000035500551913404041800000015589647527953941384_">
				<g id="XMLID_00000154419326186694606470000011660878753453059506_">
					
						<linearGradient id="SVGID_00000029731533251662592810000006232472265978863498_" gradientUnits="userSpaceOnUse" x1="1106.1903" y1="119.1129" x2="1106.1903" y2="-62.901" gradientTransform="matrix(6.123234e-17 -1 1 6.123234e-17 678.3284 1645.8564)">
						<stop  offset="0" style="stop-color:#49B9B5"/>
						<stop  offset="0.9997" style="stop-color:#46A1D9"/>
					</linearGradient>
					<path style="fill:url(#SVGID_00000029731533251662592810000006232472265978863498_);" d="M797.44,539.67
						c0,13.63-7.05,25.83-18.85,32.65l-106.62,61.56c-11.8,6.81-25.89,6.81-37.7,0c-11.8-6.81-18.85-19.02-18.85-32.65V478.11
						c0-13.63,7.05-25.83,18.85-32.65c11.8-6.81,25.89-6.81,37.7,0l106.62,61.56C790.4,513.83,797.44,526.04,797.44,539.67z
						 M628.9,601.22c0,8.76,4.53,16.6,12.11,20.98c7.58,4.38,16.64,4.38,24.23,0l106.62-61.56c7.58-4.38,12.11-12.22,12.11-20.98
						c0-8.76-4.53-16.6-12.11-20.98l-106.62-61.56c-7.58-4.38-16.64-4.38-24.23,0c-7.58,4.38-12.11,12.22-12.11,20.98V601.22z"/>
				</g>
			</g>
		</g>
		<g id="XMLID_00000082361117155122837120000011934585399572801439_">
			<g id="XMLID_00000123422198562416325100000017058954521927105182_">
				<g id="XMLID_00000041279845556112127400000008590764049356735120_">
					
						<linearGradient id="SVGID_00000132057640159054618800000011597762979787931833_" gradientUnits="userSpaceOnUse" x1="1046.5714" y1="22.8207" x2="1187.8773" y2="-58.7623" gradientTransform="matrix(6.123234e-17 -1 1 6.123234e-17 678.3284 1645.8564)">
						<stop  offset="0" style="stop-color:#4E83C3;stop-opacity:0"/>
						<stop  offset="0.0243" style="stop-color:#497BB7;stop-opacity:0.1374"/>
						<stop  offset="0.0779" style="stop-color:#416DA1;stop-opacity:0.4413"/>
						<stop  offset="0.1295" style="stop-color:#3C6593;stop-opacity:0.7338"/>
						<stop  offset="0.1765" style="stop-color:#3A628F"/>
						<stop  offset="0.2887" style="stop-color:#3F6A9C;stop-opacity:0.6775"/>
						<stop  offset="0.495" style="stop-color:#4C80BE;stop-opacity:0.0845"/>
						<stop  offset="0.5244" style="stop-color:#4E83C3;stop-opacity:0"/>
					</linearGradient>
					<path style="fill:url(#SVGID_00000132057640159054618800000011597762979787931833_);" d="M778.46,572.31l-106.62,61.56
						c-11.8,6.81-25.89,6.81-37.7,0c-11.8-6.81-18.85-19.02-18.85-32.65V478.11h13.47v123.12c0,8.76,4.53,16.6,12.11,20.98
						c7.58,4.38,16.64,4.38,24.22,0l106.62-61.56"/>
				</g>
			</g>
		</g>
		<g>
			<defs>
				
					<rect id="SVGID_00000038382888781566533200000009619651307211000492_" x="633.14" y="468.59" transform="matrix(6.123234e-17 -1 1 6.123234e-17 93.4913 1274.4905)" width="101.7" height="243.82"/>
			</defs>
			<clipPath id="SVGID_00000020397739605395580440000002695810604344748954_">
				<use xlink:href="#SVGID_00000038382888781566533200000009619651307211000492_"  style="overflow:visible;"/>
			</clipPath>
			
				<linearGradient id="SVGID_00000181074692844894883510000008605824473807137958_" gradientUnits="userSpaceOnUse" x1="1106.1903" y1="83.7929" x2="1106.1903" y2="-90.495" gradientTransform="matrix(6.123234e-17 -1 1 6.123234e-17 678.3284 1645.8564)">
				<stop  offset="0" style="stop-color:#46A1D9"/>
				<stop  offset="1" style="stop-color:#49B9B5"/>
			</linearGradient>
			
				<path style="clip-path:url(#SVGID_00000020397739605395580440000002695810604344748954_);fill:url(#SVGID_00000181074692844894883510000008605824473807137958_);" d="
				M602.74,465.17c-9.33,5.39-14.9,15.04-14.9,25.82v97.36c0,10.78,5.57,20.43,14.9,25.81c9.33,5.39,20.48,5.39,29.81,0l0.28-0.16
				l11.76-6.79l33-19.05l4.53,2.61l10.65,6.15l10.65-6.15l43.81-25.29c3.82-2.21,7.02-5.13,9.45-8.56
				c3.51-4.93,5.45-10.9,5.45-17.26c0-6.36-1.94-12.33-5.45-17.26c-2.44-3.42-5.63-6.35-9.45-8.56l-43.81-25.29l-10.65-6.15
				l-10.65,6.15l-4.53,2.61l-33-19.05l-11.76-6.79l-0.28-0.16C623.21,459.79,612.07,459.79,602.74,465.17z M666.93,497.32
				l10.65,6.15l10.65-6.15l4.53-2.61l49.13,28.37c6,3.46,9.58,9.66,9.58,16.59c0,6.93-3.58,13.13-9.58,16.59l-49.13,28.37
				l-4.53-2.61l-10.65-6.15l-10.65,6.15l-33.18,19.16l-6.53,3.77c-0.98,0.57-2,1.03-3.03,1.41c-5.28,1.95-11.11,1.48-16.13-1.41
				c-6-3.46-9.58-9.66-9.58-16.59v-97.36c0-6.93,3.58-13.13,9.58-16.59c5.02-2.9,10.84-3.36,16.13-1.41
				c1.03,0.38,2.05,0.85,3.03,1.41l6.53,3.77L666.93,497.32z"/>
		</g>
	</g>
	<g>
		<path class="st5" d="M316.77,639.52c-5.91,0-11.37-0.96-16.36-2.88c-5-1.92-9.33-4.6-13.01-8.05c-3.68-3.45-6.56-7.57-8.66-12.38
			c-2.09-4.8-3.14-10.09-3.14-15.86v-0.21c0-5.45,1.03-10.58,3.09-15.39c2.06-4.8,4.88-8.99,8.47-12.56
			c3.59-3.57,7.89-6.36,12.9-8.37c5.02-2.01,10.44-3.01,16.28-3.01c6.69,0,12.46,0.97,17.34,2.9c4.87,1.94,9.33,4.65,13.38,8.13
			l-12.35,14.78c-2.74-2.29-5.54-4.05-8.39-5.28c-2.85-1.23-6.14-1.85-9.87-1.85c-2.74,0-5.29,0.54-7.63,1.61
			c-2.34,1.07-4.37,2.55-6.1,4.43c-1.72,1.88-3.1,4.08-4.12,6.6c-1.02,2.52-1.53,5.22-1.53,8.1v0.21c0,3.03,0.51,5.84,1.53,8.45
			c1.02,2.61,2.44,4.82,4.28,6.65c1.83,1.83,3.99,3.27,6.47,4.33s5.23,1.58,8.26,1.58c4.93,0,8.97-1.06,12.14-3.17v-9.18h-14.94
			v-15.36h34.84v34.05c-4.05,3.34-8.81,6.13-14.28,8.37C329.9,638.4,323.7,639.52,316.77,639.52z"/>
		<path class="st5" d="M399.37,639.52c-5.84,0-11.25-1.03-16.23-3.09c-4.98-2.06-9.26-4.86-12.85-8.39
			c-3.59-3.54-6.41-7.68-8.47-12.43c-2.06-4.75-3.09-9.84-3.09-15.25v-0.21c0-5.38,1.03-10.48,3.09-15.28
			c2.06-4.8,4.92-8.99,8.58-12.56c3.66-3.57,7.98-6.38,12.96-8.42c4.98-2.04,10.39-3.06,16.23-3.06c5.84,0,11.24,1.02,16.2,3.06
			c4.96,2.04,9.25,4.83,12.85,8.37c3.61,3.54,6.44,7.69,8.5,12.46c2.06,4.77,3.09,9.84,3.09,15.23v0.21
			c0,5.42-1.03,10.52-3.09,15.31c-2.06,4.79-4.93,8.96-8.6,12.54c-3.68,3.57-8,6.39-12.96,8.45
			C410.62,638.49,405.21,639.52,399.37,639.52z M399.58,620.57c2.89,0,5.52-0.54,7.89-1.61c2.37-1.07,4.39-2.53,6.04-4.38
			c1.65-1.85,2.96-3.99,3.91-6.44c0.95-2.45,1.42-5.04,1.42-7.79v-0.21c0-2.74-0.48-5.34-1.42-7.79c-0.95-2.44-2.29-4.6-4.01-6.47
			c-1.72-1.87-3.77-3.36-6.15-4.49c-2.38-1.13-5.01-1.69-7.89-1.69c-2.89,0-5.5,0.55-7.84,1.64c-2.34,1.09-4.35,2.55-6.04,4.38
			c-1.69,1.83-2.99,3.97-3.91,6.41c-0.92,2.45-1.37,5.04-1.37,7.79v0.21c0,2.75,0.48,5.34,1.43,7.79c0.95,2.45,2.27,4.61,3.96,6.49
			c1.69,1.88,3.72,3.38,6.1,4.49C394.07,620.02,396.7,620.57,399.58,620.57z"/>
		<path class="st5" d="M440.15,562.3h22.17l13.14,43.81l14.62-44.02h18.05l14.57,44.02l13.2-43.81h21.75l-25.28,76.22H514.1
			l-15.25-43.55l-15.15,43.55h-18.26L440.15,562.3z"/>
		<g>
			<path class="st6" d="M275.46,440.42h43c9.95,0,18.84,1.36,26.67,4.08c7.83,2.72,14.41,6.52,19.75,11.39
				c5.34,4.87,9.42,10.68,12.25,17.42c2.83,6.74,4.24,14.15,4.24,22.24v0.31c0,8.09-1.44,15.55-4.32,22.39
				c-2.88,6.84-7.02,12.75-12.44,17.73c-5.42,4.98-12.08,8.88-19.98,11.7c-7.9,2.83-16.83,4.24-26.79,4.24h-42.38V440.42z
				 M318.92,524.55c9.23,0,16.65-2.45,22.28-7.35c5.62-4.9,8.44-11.86,8.44-20.88v-0.31c0-8.91-2.81-15.83-8.44-20.76
				c-5.62-4.92-13.05-7.39-22.28-7.39h-12.6v56.68H318.92z"/>
			<path class="st6" d="M397.92,440.42h31.1v111.5h-31.1V440.42z"/>
			<g>
				<path class="st6" d="M485.57,552.33c-2.59-2.65-4.63-5.83-6.09-9.56c-1.5-3.83-2.26-7.98-2.26-12.44v-0.31
					c0-4.25,0.75-8.23,2.26-11.94c1.5-3.71,3.52-6.95,6.06-9.72c2.54-2.77,5.53-4.95,8.98-6.53c3.45-1.58,7.19-2.37,11.24-2.37
					c5.49,0,10.34,0.91,14.54,2.72c4.2,1.82,8.32,4.41,12.36,7.78l18.19-21.77c-5.96-5.13-12.53-9.12-19.71-11.97
					c-7.18-2.85-15.69-4.28-25.54-4.28c-8.6,0-16.6,1.48-23.99,4.43c-7.39,2.95-13.72,7.06-19.01,12.32
					c-5.29,5.26-9.45,11.43-12.48,18.5c-3.03,7.07-4.55,14.63-4.55,22.66v0.31c0,8.02,1.39,15.4,4.14,22.16H485.57z"/>
				<polygon class="st6" points="503.35,543.08 525.35,543.08 525.35,552.33 554.67,552.33 554.67,520.45 503.35,520.45 				"/>
			</g>
		</g>
	</g>
</g>
</svg>
