<svg 
 xmlns="http://www.w3.org/2000/svg"
 xmlns:xlink="http://www.w3.org/1999/xlink"
 width="28px" height="32px">
<path fillRule="evenodd"  fill="rgb(255, 255, 255)"
 d="M7.178,20.262 C7.851,20.262 8.397,20.808 8.397,21.480 L8.397,21.480 C8.397,22.153 7.851,22.698 7.178,22.698 C6.506,22.698 5.961,22.153 5.961,21.480 L5.961,21.480 C5.961,20.808 6.506,20.262 7.178,20.262 ZM10.528,21.480 L10.528,21.480 C10.528,22.153 11.73,22.698 11.746,22.698 C12.418,22.698 12.964,22.153 12.964,21.480 L12.964,21.480 C12.964,20.808 12.418,20.262 11.746,20.262 C11.73,20.262 10.528,20.808 10.528,21.480 ZM15.96,21.480 L15.96,21.480 C15.96,22.153 15.641,22.698 16.313,22.698 C16.986,22.698 17.532,22.153 17.532,21.480 L17.532,21.480 C17.532,20.808 16.986,20.262 16.313,20.262 C15.641,20.262 15.96,20.808 15.96,21.480 ZM19.724,21.480 L19.724,21.480 C19.724,22.153 20.269,22.698 20.942,22.698 C21.614,22.698 22.160,22.153 22.160,21.480 L22.160,21.480 C22.160,20.808 21.614,20.262 20.942,20.262 C20.269,20.262 19.724,20.808 19.724,21.480 ZM25.205,21.237 L25.205,16.730 C25.205,15.387 24.113,14.294 22.769,14.294 L5.230,14.294 C3.887,14.294 2.794,15.387 2.794,16.730 L2.794,26.718 C2.794,28.61 3.887,29.154 5.230,29.154 L22.769,29.154 C24.113,29.154 25.205,28.61 25.205,26.718 C25.205,26.45 25.750,25.500 26.424,25.500 C27.96,25.500 27.641,26.45 27.641,26.718 C27.641,29.404 25.456,31.590 22.769,31.590 L5.230,31.590 C2.544,31.590 0.358,29.404 0.358,26.718 L0.358,16.730 C0.358,14.44 2.544,11.858 5.230,11.858 L6.690,11.858 L6.690,7.563 C6.690,3.618 9.968,0.409 13.997,0.409 C18.27,0.409 21.306,3.618 21.306,7.563 L21.306,11.858 L22.769,11.858 C25.456,11.858 27.641,14.44 27.641,16.730 L27.641,21.237 C27.641,21.910 27.96,22.455 26.424,22.455 C25.750,22.455 25.205,21.910 25.205,21.237 ZM9.126,11.858 L18.869,11.858 L18.869,7.563 C18.869,4.961 16.684,2.845 13.997,2.845 C11.311,2.845 9.126,4.961 9.126,7.563 L9.126,11.858 L9.126,11.858 Z"/>
</svg>