<svg xmlns="http://www.w3.org/2000/svg" width="23.964" height="23.916" viewBox="0 0 23.964 23.916">
  <g id="Icons1" transform="translate(-7.748 -7.876)">
    <path id="Tracé_170" data-name="Tracé 170" d="M39.592,41.528c-1.654,1.224,3.489-4.035,2.026-2.036.037,0-.031.108-.259.386,0,0,3.909,3.882,5.827,5.858.666.72-.536,2.158-1.352,1.407-1.738-1.686-5.849-5.875-5.855-5.882l-.387.267Z" transform="translate(-15.964 -15.814)" fill="#181640" stroke="#181640" stroke-width="0.5" fill-rule="evenodd"/>
    <path id="Tracé_171" data-name="Tracé 171" d="M17.885,27.677a9.813,9.813,0,0,0,9.634-11.013,9.67,9.67,0,0,0-9.7-8.538,10.034,10.034,0,0,0-8.857,5.66,9.811,9.811,0,0,0,0,8.23,10.027,10.027,0,0,0,8.794,5.66Zm-.115-1.63a8.393,8.393,0,0,1-7.957-6.665,8.156,8.156,0,0,1,11.116-9A8.357,8.357,0,0,1,25.9,16.872a8.184,8.184,0,0,1-8.028,9.176Z" fill="#181640" stroke="#181640" stroke-width="0.5"/>
  </g>
</svg>

