<svg xmlns="http://www.w3.org/2000/svg" width="21.538" height="22.196" viewBox="0 0 21.538 22.196">
  <path id="crescent-moon_icon-icons.com_70215" d="M17.255,15.556A10.544,10.544,0,0,1,6.667,4.967,10.328,10.328,0,0,1,7.843,0,10.7,10.7,0,0,0,0,10.327,10.544,10.544,0,0,0,10.588,20.915,10.752,10.752,0,0,0,20,15.163a8.69,8.69,0,0,1-2.745.392Zm-6.667,4.052A9.283,9.283,0,0,1,5.621,2.484a7.64,7.64,0,0,0-.261,2.484,12.138,12.138,0,0,0,11.9,12.026A10.379,10.379,0,0,1,10.588,19.608Z" transform="translate(0.5 0.781)" fill="#cecfcf" stroke="#cecfcf" stroke-width="1"/>
</svg>
