<svg 
 xmlns="http://www.w3.org/2000/svg"
 xmlns:xlink="http://www.w3.org/1999/xlink"
 width="26px" height="32px">
<path fillRule="evenodd"  fill="rgb(255, 255, 255)"
 d="M24.398,30.61 C23.397,31.14 22.72,31.497 20.460,31.497 L5.538,31.497 C3.927,31.497 2.601,31.14 1.600,30.61 C0.586,29.95 0.72,27.785 0.72,26.167 C0.72,25.545 0.93,24.930 0.133,24.337 C0.176,23.731 0.260,23.72 0.384,22.377 C0.511,21.676 0.672,21.14 0.867,20.408 C1.66,19.782 1.339,19.164 1.675,18.572 C2.24,17.957 2.435,17.422 2.896,16.981 C3.377,16.520 3.967,16.149 4.649,15.879 C5.328,15.610 6.81,15.474 6.887,15.474 C7.203,15.474 7.510,15.604 8.100,15.988 C8.469,16.229 8.894,16.503 9.364,16.804 C9.770,17.62 10.320,17.305 10.999,17.524 C11.662,17.739 12.334,17.847 12.999,17.847 C13.663,17.847 14.336,17.739 14.998,17.524 C15.678,17.305 16.228,17.62 16.634,16.804 C17.108,16.500 17.534,16.226 17.897,15.989 C18.489,15.604 18.794,15.474 19.110,15.474 C19.916,15.474 20.669,15.610 21.349,15.879 C22.31,16.149 22.620,16.520 23.102,16.981 C23.563,17.421 23.973,17.957 24.322,18.572 C24.659,19.164 24.931,19.782 25.132,20.408 C25.326,21.14 25.487,21.676 25.613,22.377 C25.738,23.73 25.822,23.732 25.865,24.336 C25.906,24.926 25.927,25.542 25.927,26.167 C25.927,27.785 25.413,29.95 24.398,30.61 ZM12.804,15.432 C10.753,15.432 8.978,14.697 7.527,13.245 C6.75,11.794 5.340,10.18 5.340,7.967 C5.340,5.916 6.75,4.140 7.526,2.688 C8.977,1.237 10.753,0.502 12.804,0.502 C14.854,0.502 16.631,1.237 18.82,2.688 C19.533,4.140 20.268,5.916 20.268,7.967 C20.268,10.18 19.533,11.794 18.82,13.245 C16.631,14.697 14.854,15.432 12.804,15.432 Z"/>
</svg>