<svg xmlns="http://www.w3.org/2000/svg" width="18" height="19" viewBox="0 0 18 19">
  <g id="_14-linkedin" data-name="14-linkedin" transform="translate(-7.5 -8)">
    <rect id="Rectangle_16" data-name="Rectangle 16" width="18" height="19" rx="6" transform="translate(7.5 8)" fill="#007fb5"/>
    <g id="Groupe_73" data-name="Groupe 73" transform="translate(10.458 10.515)">
      <g id="Groupe_74" data-name="Groupe 74">
        <rect id="Rectangle_17" data-name="Rectangle 17" width="2.227" height="8.068" transform="translate(0.279 3.896)" fill="#fff"/>
        <path id="Tracé_151" data-name="Tracé 151" d="M31.218,22.955a2.943,2.943,0,0,0-3.339,1.026V22.955H25.66v8.068h2.219V26.767a2.084,2.084,0,0,1,.55-1.46,1.171,1.171,0,0,1,.841-.412,1.336,1.336,0,0,1,.971.392,1.511,1.511,0,0,1,.419,1.073v4.663h2.505v-5A2.961,2.961,0,0,0,31.218,22.955Z" transform="translate(-21.271 -19.059)" fill="#fff"/>
        <circle id="Ellipse_18" data-name="Ellipse 18" cx="1.391" cy="1.391" r="1.391" fill="#fff"/>
      </g>
    </g>
  </g>
</svg>
